<svg width="250" height="250" viewBox="0 0 250 250" fill="none" xmlns="http://www.w3.org/2000/svg">
<g clip-path="url(#clip0_6313_317)">
<rect width="250" height="250" fill="black"/>
</g>
<path d="M129.554 199.722L200.108 130.779C203.312 127.648 203.321 122.497 200.128 119.355L130.104 50.4516C128.608 48.9791 126.592 48.1539 124.493 48.1539L93.3816 48.1539C91.2483 48.1539 89.2033 49.006 87.7011 50.5208L60.757 77.6915C57.598 80.8771 57.6757 86.0373 60.9293 89.1263L92.5873 119.183C95.9457 122.372 95.9035 127.737 92.4953 130.872L61.0039 159.843C57.7072 162.876 57.5429 168.024 60.6396 171.261L87.6855 199.53C89.1947 201.108 91.283 202 93.4661 202L123.962 202C126.052 202 128.059 201.182 129.554 199.722Z" fill="#FFD600"/>
<defs>
<clipPath id="clip0_6313_317">
<rect width="250" height="250" rx="45" fill="white"/>
</clipPath>
</defs>
</svg>
