<svg width="566" height="276" viewBox="0 0 566 276" fill="none" xmlns="http://www.w3.org/2000/svg">
<path d="M143.848 202H100.248L135.248 148.4L101.648 98.8H144.248L162.048 127.8H164.048L182.048 98.8H224.448L190.848 148.4L226.048 202H182.448L164.048 170H162.048L143.848 202ZM282.359 204.6C259.759 204.6 245.159 188.6 245.159 164.8V125.4H231.959V98.8H246.559L253.359 66.6H282.759V98.8H304.359V125.4H282.759V163C282.759 171 287.559 176.4 294.959 176.4C297.759 176.4 301.759 175.8 304.959 175V201C298.359 203.4 288.759 204.6 282.359 204.6ZM373.066 204.6C337.466 204.6 314.666 184 314.666 150.4C314.666 116.6 337.266 96.2 373.066 96.2C408.466 96.2 431.266 116.8 431.266 150.4C431.266 184.2 408.466 204.6 373.066 204.6ZM373.066 173.2C385.266 173.2 393.866 163.8 393.866 150.4C393.866 137 385.266 127.6 373.066 127.6C360.666 127.6 352.266 137 352.266 150.4C352.266 163.8 360.666 173.2 373.066 173.2ZM483.856 202H446.456V52.8H483.856V136.6H485.856L512.656 98.8H556.656L518.256 148.4L557.256 202H512.856L485.856 160.6H483.856V202Z" fill="white"/>
<path d="M50.6841 199.722L95.2214 156.202C98.4254 153.071 98.4344 147.92 95.2413 144.778L51.0538 101.298C49.5574 99.8252 47.5422 99 45.4428 99L26.7982 99C24.6648 99 22.6199 99.8521 21.1177 101.367L5.757 116.857C2.59796 120.042 2.67569 125.203 5.92925 128.292L23.113 144.606C26.4715 147.795 26.4292 153.16 23.021 156.295L6.00388 171.95C2.70719 174.983 2.54293 180.132 5.63958 183.368L21.1021 199.53C22.6113 201.108 24.6996 202 26.8827 202L45.093 202C47.1827 202 49.1895 201.182 50.6841 199.722Z" fill="#FFD600"/>
</svg>
